<!DOCTYPE svg PUBLIC "-//W3C//DTD SVG 1.1//EN" "http://www.w3.org/Graphics/SVG/1.1/DTD/svg11.dtd">
<!-- Uploaded to: SVG Repo, www.svgrepo.com, Transformed by: SVG Repo Mixer Tools -->
<svg fill="#36c32c" width="800px" height="800px" viewBox="0 0 24 24" xmlns="http://www.w3.org/2000/svg" stroke="#36c32c">
<g id="SVGRepo_bgCarrier" stroke-width="0"/>
<g id="SVGRepo_tracerCarrier" stroke-linecap="round" stroke-linejoin="round"/>
<g id="SVGRepo_iconCarrier">
<path d="M18,2H6A2,2,0,0,0,4,4V22l3-3,2,3,3-3,3,3,2-3,3,3V4A2,2,0,0,0,18,2ZM12,16H8a1,1,0,0,1,0-2h4a1,1,0,0,1,0,2Zm0-4H8a1,1,0,0,1,0-2h4a1,1,0,0,1,0,2Zm4,4H15a1,1,0,0,1,0-2h1a1,1,0,0,1,0,2Zm0-4H15a1,1,0,0,1,0-2h1a1,1,0,0,1,0,2Zm0-5H8A1,1,0,0,1,8,5h8a1,1,0,0,1,0,2Z"/>
</g>
</svg>